<?xml version="1.0" encoding="utf-8"?>
<!-- Generator: Adobe Illustrator 22.0.1, SVG Export Plug-In . SVG Version: 6.00 Build 0)  -->
<svg version="1.1" id="Layer_1" xmlns="http://www.w3.org/2000/svg" xmlns:xlink="http://www.w3.org/1999/xlink" x="0px" y="0px"
	 viewBox="0 0 45.1 35" style="enable-background:new 0 0 45.1 35;" xml:space="preserve">
<style type="text/css">
	.st0{fill:#FFFFFF;}
</style>
<title>Asset 11</title>
<g id="Layer_2_1_">
	<g id="Layer_1-2">
		<g id="_Group_">
			<path id="_Path_" class="st0" d="M17.5,2.1c0.2-0.3,0.4-0.7,0.3-1.1c0-0.3-0.2-0.6-0.4-0.8l0,0l-0.1-0.1L17.2,0l-0.1,0.1
				l-0.1,0.1l0,0c-0.2,0.3-0.2,0.6-0.2,0.9C16.9,1.4,17.1,1.8,17.5,2.1z"/>
			<path id="_Path_2" class="st0" d="M13.1,4.9L13.1,4.9c0.2,0.2,0.5,0.4,0.8,0.4c0.4,0,0.8-0.1,1.1-0.3c-0.2-0.3-0.6-0.6-1-0.6
				c-0.3,0-0.6,0-0.9,0.2l0,0L13,4.6l0,0.1L13.1,4.9L13.1,4.9z"/>
			<path id="_Compound_Path_" class="st0" d="M13.1,14.1L13.1,14.1L13.1,14.1c0.2,0.6,0.6,1.1,1.2,1.5c0.8,0.4,1.7,0.5,2.5,0.2
				c-0.2-0.8-0.8-1.5-1.5-2c-0.6-0.3-1.2-0.4-1.9-0.3l0,0l-0.2,0.1l-0.2,0.1l0.1,0.2C13,14,13,14.1,13.1,14.1z M15,14.3
				c0.5,0.3,0.8,0.7,1,1.2c-0.5,0.1-1.1,0-1.6-0.3c-0.4-0.3-0.8-0.7-0.9-1.1C14,14,14.6,14,15,14.3z"/>
			<path id="_Compound_Path_2" class="st0" d="M13.4,7.9L13.4,7.9c0.6,0.1,1.3,0,1.9-0.3c0.7-0.5,1.2-1.2,1.5-2
				c-0.8-0.2-1.7-0.1-2.5,0.3c-0.5,0.3-0.9,0.8-1.1,1.4l0,0l0,0c0,0.1-0.1,0.1-0.1,0.2l-0.1,0.2l0.2,0.1L13.4,7.9z M14.5,6.3
				C14.9,6,15.5,5.9,16,6c-0.2,0.5-0.5,0.9-1,1.2c-0.4,0.2-0.9,0.3-1.4,0.2C13.7,6.9,14,6.5,14.5,6.3z"/>
			<path id="_Compound_Path_3" class="st0" d="M20.1,2.8c0.3-0.6,0.4-1.2,0.3-1.8l0,0l0,0c0-0.1,0-0.1,0-0.2l-0.1-0.2L20,0.5
				l-0.2,0.1l0,0c-0.6,0.2-1.1,0.6-1.5,1.2c-0.4,0.8-0.5,1.7-0.2,2.5C18.9,4,19.6,3.5,20.1,2.8z M18.7,2c0.3-0.4,0.7-0.8,1.1-0.9
				c0.1,0.5,0,1-0.2,1.5c-0.3,0.5-0.7,0.8-1.2,1C18.4,3,18.5,2.5,18.7,2z"/>
			<path id="_Path_3" class="st0" d="M29.5,1c0-0.3,0-0.6-0.2-0.9l0,0l-0.1-0.1L29.2,0l-0.1,0.1L29,0.1l0,0
				c-0.2,0.2-0.4,0.5-0.4,0.8c0,0.4,0.1,0.8,0.3,1.1C29.2,1.8,29.4,1.4,29.5,1z"/>
			<path id="_Compound_Path_4" class="st0" d="M26.4,2.8c0.5,0.7,1.2,1.3,2,1.5c0.2-0.8,0.1-1.7-0.3-2.5c-0.3-0.6-0.8-1-1.5-1.2l0,0
				l-0.2-0.1l-0.2-0.1l0,0.2l-0.1,0.2l0,0l0,0C25.9,1.5,26,2.2,26.4,2.8z M26.5,1.1C27,1.2,27.4,1.6,27.7,2c0.3,0.5,0.4,1,0.3,1.5
				c-0.5-0.2-0.9-0.5-1.2-1C26.5,2.1,26.4,1.6,26.5,1.1z"/>
			<path id="_Path_4" class="st0" d="M33.3,16.6L33.3,16.6c-0.2-0.2-0.5-0.4-0.8-0.4c-0.4,0-0.8,0.1-1.1,0.3c0.2,0.3,0.6,0.5,1,0.6
				c0.3,0,0.6,0,0.9-0.2l0,0l0.1-0.1l0.1-0.1L33.3,16.6C33.3,16.6,33.3,16.6,33.3,16.6z"/>
			<path id="_Path_5" class="st0" d="M28.9,18.9c-0.2,0.3-0.4,0.7-0.3,1.1c0,0.3,0.2,0.6,0.4,0.8l0,0l0.1,0.1l0.1,0.1l0.1-0.1
				l0.1-0.1l0,0c0.2-0.3,0.2-0.6,0.2-0.9C29.4,19.5,29.2,19.1,28.9,18.9z"/>
			<path id="_Compound_Path_5" class="st0" d="M33.3,13.7L33,13.6l0,0c-0.6-0.1-1.3-0.1-1.9,0.3c-0.7,0.5-1.2,1.2-1.5,2
				c0.8,0.2,1.7,0.1,2.5-0.2c0.6-0.3,1-0.8,1.2-1.5l0,0l0,0c0-0.1,0.1-0.1,0.1-0.2l0.1-0.2L33.3,13.7z M31.9,15.2
				c-0.5,0.3-1,0.4-1.5,0.3c0.2-0.5,0.5-0.9,1-1.2c0.4-0.2,1-0.3,1.5-0.2C32.7,14.5,32.4,14.9,31.9,15.2z"/>
			<path id="_Path_6" class="st0" d="M16.9,19.9c0,0.3,0,0.6,0.2,0.9l0,0l0.1,0.1l0.1,0.1l0.1-0.1l0.1-0.1l0,0
				c0.2-0.2,0.4-0.5,0.4-0.8c0-0.4-0.1-0.8-0.3-1.1C17.2,19.1,16.9,19.5,16.9,19.9z"/>
			<path id="_Compound_Path_6" class="st0" d="M26.1,20.6l0.1,0.2l0,0.2l0.2,0l0.2-0.1l0,0c0.6-0.2,1.1-0.6,1.5-1.2
				c0.4-0.8,0.5-1.6,0.3-2.5c-0.8,0.2-1.5,0.8-2,1.5C26,19.3,25.9,20,26.1,20.6L26.1,20.6L26.1,20.6z M26.8,19
				c0.3-0.5,0.7-0.8,1.2-1c0.1,0.5,0,1.1-0.3,1.5c-0.3,0.4-0.7,0.8-1.1,0.9C26.4,20,26.5,19.4,26.8,19z"/>
			<path id="_Path_7" class="st0" d="M14,17.1c0.4-0.1,0.8-0.3,1-0.6c-0.3-0.3-0.7-0.4-1.1-0.3c-0.3,0-0.6,0.2-0.8,0.4l0,0L13,16.6
				l-0.1,0.1l0.1,0.1l0.1,0.1l0,0C13.4,17,13.7,17.1,14,17.1z"/>
			<path id="_Compound_Path_7" class="st0" d="M20.1,18.7c-0.5-0.7-1.2-1.3-2-1.5c-0.2,0.8-0.1,1.7,0.2,2.5c0.3,0.6,0.8,1,1.5,1.2
				l0,0L20,21l0.2,0l0.1-0.2c0-0.1,0-0.1,0-0.2l0,0l0,0C20.5,20,20.4,19.3,20.1,18.7z M19.9,20.4c-0.5-0.2-0.9-0.5-1.1-0.9
				c-0.3-0.5-0.4-1-0.3-1.5c0.5,0.2,0.9,0.5,1.2,1C19.9,19.4,20,19.9,19.9,20.4z"/>
			<path id="_Path_8" class="st0" d="M32.4,4.4c-0.4,0.1-0.8,0.3-1,0.6c0.3,0.2,0.7,0.4,1.2,0.3c0.3-0.1,0.6-0.2,0.8-0.4l0,0
				l0.1-0.1l0.1-0.1l-0.1-0.1l-0.1-0.1l0,0C33,4.4,32.7,4.4,32.4,4.4z"/>
			<path id="_Compound_Path_8" class="st0" d="M13.4,1.6L13.4,1.6c0,0.9,0.4,1.8,1.1,2.4c0.7,0.7,1.6,1.1,2.6,1.2
				c0,0.7-0.2,1.3-0.4,1.9c-0.3,1.1-0.9,2.1-1.6,3c-0.3-0.3-0.7-0.3-1,0c-0.3,0.3-0.3,0.7,0,1c0.3,0.3,0.7,0.3,1,0
				c0.7,0.9,1.3,1.9,1.6,3c0.2,0.6,0.4,1.3,0.4,1.9c-1,0.1-1.9,0.5-2.6,1.2c-0.6,0.7-1,1.5-1.1,2.4l0,0l0,0c0,0.1,0,0.2,0,0.3v0.3
				h0.6c0.9,0,1.8-0.4,2.4-1c0.7-0.7,1.1-1.6,1.2-2.6c0.7,0,1.3,0.2,1.9,0.4c1.1,0.3,2.1,0.9,3,1.6c-0.3,0.3-0.2,0.8,0.1,1
				s0.8,0.2,1-0.1c0.2-0.3,0.2-0.7,0-1c0.9-0.7,1.9-1.3,3-1.6c0.6-0.2,1.3-0.4,1.9-0.4c0.1,1,0.5,1.9,1.2,2.6c0.7,0.6,1.5,1,2.4,1
				H33V20c0-0.1,0-0.2,0-0.3l0,0l0,0c0-0.9-0.4-1.8-1-2.4c-0.7-0.7-1.6-1.1-2.6-1.2c0-0.7,0.2-1.3,0.4-1.9c0.3-1.1,0.9-2.1,1.6-3
				c0.3,0.3,0.8,0.2,1-0.1c0.3-0.3,0.2-0.8-0.1-1c-0.3-0.2-0.7-0.2-0.9,0c-0.7-0.9-1.3-1.9-1.6-3c-0.2-0.6-0.4-1.3-0.4-1.9
				c1-0.1,1.9-0.5,2.6-1.2c0.6-0.6,1-1.4,1.1-2.3l0,0l0,0c0-0.1,0-0.2,0-0.3V1h-0.7c-0.9,0-1.8,0.4-2.5,1c-0.7,0.7-1.1,1.6-1.2,2.6
				c-0.7,0-1.3-0.2-1.9-0.4c-1.1-0.3-2.2-0.9-3.1-1.7c0.3-0.3,0.2-0.7,0-1c-0.2-0.3-0.7-0.4-1-0.2s-0.4,0.7-0.2,1
				c0.1,0.1,0.1,0.1,0.2,0.2l0,0c-0.9,0.7-1.9,1.3-3,1.6c-0.6,0.2-1.3,0.4-1.9,0.4c-0.1-0.9-0.5-1.8-1.2-2.5c-0.7-0.6-1.5-1-2.4-1
				h-0.6v0.3C13.4,1.4,13.4,1.5,13.4,1.6L13.4,1.6z M16,19c-0.5,0.5-1.2,0.8-1.9,0.9c0-0.7,0.4-1.4,0.9-1.9c0.5-0.5,1.2-0.9,2-1
				C16.9,17.7,16.6,18.4,16,19z M31.4,18c0.5,0.5,0.8,1.2,0.8,1.9c-0.7-0.1-1.4-0.4-1.9-0.9c-0.5-0.5-0.9-1.2-1-2
				C30.1,17.1,30.9,17.4,31.4,18L31.4,18z M30.4,2.5c0.5-0.5,1.2-0.8,1.9-0.8c0,0.7-0.3,1.4-0.8,1.9c-0.5,0.5-1.2,0.9-2,1
				C29.5,3.8,29.8,3.1,30.4,2.5z M17.8,5.3c0.7,0,1.4-0.2,2-0.4c1.2-0.4,2.4-1,3.4-1.9c1,0.8,2.1,1.5,3.4,1.8c0.7,0.2,1.3,0.4,2,0.4
				c0,0.7,0.2,1.4,0.4,2.1c0.4,1.2,1,2.4,1.9,3.4c-0.8,1-1.5,2.1-1.9,3.4c-0.2,0.7-0.4,1.4-0.4,2.1c-0.7,0-1.4,0.2-2,0.4
				c-1.2,0.4-2.4,1-3.4,1.9c-1-0.8-2.1-1.5-3.4-1.9c-0.7-0.2-1.4-0.4-2-0.4c0-0.7-0.2-1.4-0.4-2.1c-0.4-1.2-1-2.4-1.9-3.4
				c0.8-1,1.5-2.1,1.9-3.4C17.6,6.7,17.7,6,17.8,5.3z M16,2.5c0.5,0.5,0.9,1.2,1,2c-0.8-0.1-1.5-0.5-2-1c-0.5-0.5-0.8-1.2-0.9-1.9
				C14.9,1.7,15.5,2,16,2.5z"/>
			<path id="_Compound_Path_9" class="st0" d="M33.4,7.5c0-0.1,0-0.1-0.1-0.2l0,0l0,0c-0.2-0.6-0.6-1.1-1.2-1.4
				c-0.8-0.4-1.6-0.5-2.5-0.3c0.2,0.8,0.7,1.5,1.5,2C31.7,7.9,32.4,8,33,7.9l0,0l0.2-0.1l0.2-0.1L33.4,7.5z M31.4,7.2
				c-0.5-0.3-0.8-0.7-1-1.2C31,5.9,31.5,6,32,6.3c0.4,0.3,0.8,0.7,0.9,1.1C32.4,7.5,31.9,7.4,31.4,7.2z"/>
			<path id="_Compound_Path_10" class="st0" d="M19.2,10.6l3.8,1.9c0.1,0.1,0.3,0.1,0.4,0l2.3-1.1c0.5-0.3,1.1-0.6,1.6-0.8
				c0.1,0,0.2-0.2,0.2-0.3V9c0-0.1-0.1-0.3-0.2-0.3l-0.6-0.2c0,0-0.1,0-0.1,0c-0.1,0.1-0.1,0.1-0.2,0.2c-0.4,0.3-0.8,0.5-1.2,0.6H25
				l0.5,0.2c0,0,0.1,0.1,0.1,0.1V11c0,0,0,0.1-0.1,0.1l-0.7,0.4h-0.1v-1.3c0-0.1,0-0.1-0.1-0.1c-0.1-0.1-0.3-0.1-0.4-0.2l-0.5-0.3
				l0.4-0.1c0.5-0.2,1.1-0.4,1.6-0.6c0.3-0.2,0.6-0.4,0.8-0.7c0.1-0.2,0.2-0.5,0.1-0.7c-0.1-0.2-0.2-0.3-0.3-0.4
				c-0.1-0.1-0.3-0.3-0.4-0.4c-0.2-0.2-0.4-0.4-0.6-0.4H25c-0.5,0.2-0.9,0.6-1.1,1.1c-0.3,0.6-0.5,1.1-0.7,1.7c0,0,0,0,0,0.1
				c-0.1-0.2-0.1-0.3-0.1-0.5c-0.2-0.6-0.4-1.1-0.7-1.7c-0.2-0.3-0.4-0.5-0.7-0.7c-0.1,0-0.1,0-0.2-0.1h-0.2
				c-0.2,0.1-0.4,0.2-0.5,0.3c-0.2,0.2-0.4,0.4-0.6,0.6c-0.3,0.3-0.4,0.8-0.2,1.1c0,0,0,0,0,0.1c0.2,0.2,0.4,0.4,0.7,0.6
				c0.4,0.3,0.9,0.5,1.4,0.6l0.6,0.2l-0.1,0.1L21.8,10c-0.1,0-0.1,0.1-0.1,0.1v1.4h0l-0.8-0.4c0,0,0-0.1,0-0.1V9.8
				c0-0.1,0-0.1,0.1-0.1l0.5-0.2l-0.4-0.1c-0.4-0.2-0.8-0.4-1.1-0.7c0,0-0.1,0-0.1,0l-0.6,0.2C19.1,8.8,19,8.9,19,9
				c0,0.4,0,0.8,0,1.2C19,10.4,19,10.5,19.2,10.6z M23.8,8.5c0.1-0.5,0.4-1,0.6-1.4c0.1-0.2,0.3-0.4,0.5-0.5c0.1-0.1,0.3-0.1,0.4,0
				c0,0,0,0,0,0c0.2,0.2,0.3,0.3,0.5,0.5l0.2,0.2c0.2,0.1,0.2,0.3,0.1,0.5c0,0,0,0,0,0c-0.2,0.2-0.4,0.4-0.6,0.5
				c-0.6,0.3-1.2,0.5-1.8,0.7h0L23.8,8.5z M22,8.9c-0.5-0.2-0.9-0.4-1.3-0.6c-0.2-0.1-0.3-0.3-0.4-0.4c-0.1-0.1-0.1-0.3,0-0.5
				l0.2-0.2l0.4-0.4c0,0,0.1-0.1,0.1-0.1c0.1-0.1,0.4-0.1,0.5,0c0.2,0.2,0.4,0.4,0.5,0.6c0.3,0.6,0.5,1.2,0.7,1.8l0,0L22,8.9z"/>
			<path id="_Path_9" class="st0" d="M27.1,11.1c-0.2,0.1-0.3,0.2-0.5,0.2c-0.1,0-0.1,0.1-0.1,0.1v1.8c0,0.1,0,0.1-0.1,0.1l-0.3,0.2
				l-2.1,1.2L23.5,15v-2.2c-0.2,0.1-0.4,0.1-0.6,0v2.2l-0.5-0.3L20,13.4c-0.1,0-0.1-0.1-0.1-0.1v-1.8c0,0,0-0.1,0-0.1l-0.5-0.3v2.4
				c0,0.1,0.1,0.2,0.2,0.3l1.5,0.9l1.9,1.1c0.1,0.1,0.3,0.1,0.4,0c0.5-0.3,1-0.6,1.4-0.8l2-1.1c0.1-0.1,0.2-0.2,0.2-0.3L27.1,11.1
				L27.1,11.1z"/>
			<path id="_Path_10" class="st0" d="M23.4,7.5c-0.1-0.1-0.3-0.1-0.4,0L23.2,8L23.4,7.5z"/>
			<path id="_Compound_Path_11" class="st0" d="M10.7,21.1c-0.3-0.4-0.8-0.8-1.3-1c-0.2-0.1-0.3-0.2-0.2-0.3c0-0.1,0.1-0.2,0.1-0.2
				l0.1-0.2c0,0,0-0.1,0-0.1c0-0.1-0.2-0.1-0.6-0.2c-0.2,0-0.4,0-0.6,0c-0.1,0-0.2,0.1-0.2,0.2c-0.1,0.1-0.1,0.1-0.2,0.2
				c-0.1,0.1-0.2,0.1-0.3,0.1c-0.7,0-1.3,0.1-2,0.3C4.2,20.3,3,21,2.1,22c-0.4,0.4-0.7,0.8-1,1.3c-0.3,0.4-0.5,0.9-0.7,1.4
				C0.2,25.3,0,26,0,26.6c0,0.2,0,0.3,0.1,0.5c0.1,0.3,0.4,0.5,0.7,0.5h0.2c0.1,0,0.3-0.2,0.3-0.3c0-0.1,0-0.2,0-0.4
				c0-0.1,0-0.2,0-0.4c0.3-1.3,1-2.5,1.9-3.5c1.2-1.4,2.3-2,3.3-2.1c0.2,0,0.4,0,0.4,0.1c0,0.1-0.1,0.2-0.1,0.2
				C6,22.5,5.5,23.7,5,24.9c-0.3,0.8-0.6,1.5-0.8,2l-0.5,1.3c0,0.1-0.1,0.2-0.2,0.3c-0.1,0-0.2,0-0.4,0H2.9H2.6
				c-1.2,0-1.8,0.3-1.9,0.8s0.4,0.8,1.4,0.9c0.7,0,1.3-0.1,1.9-0.4c0.3-0.1,0.7-0.1,1,0.1c0.2,0.1,0.4,0.1,0.5,0.1h0.2h0.6
				c0.9,0,1.8-0.3,2.5-0.9c1.2-0.9,1.9-2.3,2.3-3.7c0.2-0.6,0.3-1.3,0.3-1.9C11.4,22.6,11.2,21.8,10.7,21.1z M9.1,25.5
				c-0.2,0.5-0.5,1-0.7,1.5c-0.2,0.3-0.4,0.6-0.7,0.9c-0.6,0.6-1.4,0.9-2.3,0.9c-0.3,0-0.4,0-0.4-0.1v-0.1c0.3-0.7,0.7-1.3,1-1.9
				c0.3-0.5,0.5-1.1,0.7-1.7c0.2-0.5,0.5-1.2,0.9-2.1c0.2-0.5,0.5-1,0.7-1.5c0.1-0.2,0.3-0.3,0.4-0.3c0.1,0,0.1,0,0.2,0
				c0.6,0.2,0.9,0.8,0.9,1.7C9.8,23.7,9.5,24.7,9.1,25.5z"/>
			<path id="_Path_11" class="st0" d="M43.2,21.1c0.1,0,0.2,0.1,0.3,0.1c0.4,0,0.8-0.3,0.9-0.6c0.1-0.2,0.1-0.4,0.1-0.5
				c0-0.3-0.2-0.7-0.5-0.8c-0.1,0-0.2,0-0.3,0c-0.4,0-0.7,0.1-0.9,0.4c-0.1,0.2-0.2,0.5-0.2,0.8C42.7,20.7,42.9,21,43.2,21.1z"/>
			<path id="_Compound_Path_12" class="st0" d="M45,28.1c0-0.1-0.1-0.1-0.1,0c-0.1,0.2-0.2,0.3-0.4,0.4c-0.2,0.1-0.3,0.2-0.5,0.4
				c-0.2,0.2-0.5,0.3-0.8,0.3c-0.4,0-0.8-0.1-1.1-0.3c-0.1-0.1-0.1-0.2-0.1-0.3c0-0.2,0.1-0.4,0.1-0.6c0.3-0.7,0.5-1.4,0.7-2.1
				s0.4-1.3,0.6-1.9c0-0.1,0-0.3,0-0.4c0-0.1-0.1-0.2-0.2-0.2c-0.4-0.1-0.8-0.1-1.2,0c-0.2,0.1-0.4,0.3-0.4,0.5l-0.3,1
				c-0.1,0.3-0.2,0.7-0.3,1c-0.2,0.6-0.3,1.1-0.4,1.5c-0.1,0.2-0.1,0.5-0.2,0.7c0,0.1,0,0.3,0,0.4c-0.1,0.1-0.3,0.2-0.4,0.3
				c-0.3,0.2-0.5,0.3-0.8,0.3c-0.3,0-0.5,0-0.8,0c-0.2,0-0.4-0.2-0.4-0.4c0,0,0-0.1,0-0.1c0-0.1,0-0.3,0.1-0.4
				c0.1-0.2,0.2-0.6,0.4-1c0.2-0.5,0.4-1,0.6-1.6c0-0.3-0.1-0.5-0.3-0.7c-0.2-0.2-0.5-0.3-0.8-0.5c-0.2-0.1-0.4-0.2-0.5-0.2
				l-0.3-0.1c-0.1,0-0.1-0.1-0.2-0.1c0,0,0-0.1,0-0.1c0.1-0.1,0.1-0.3,0.1-0.4c0-0.5-0.3-0.8-0.7-0.8s-0.8,0.3-0.9,0.9v0.2v0.1
				c0,0.1,0,0.3,0.1,0.4c0.1,0.1,0.1,0.2,0.1,0.3l0,0c0,0,0,0,0,0.1c-0.2,0.7-0.5,1.4-0.8,2.1c-0.2,0.5-0.5,1-0.9,1.5
				c-0.2,0.3-0.5,0.5-0.7,0.7c-0.3,0.2-0.5,0.3-0.8,0.4c-0.3,0-0.6-0.1-0.9-0.3c-0.1-0.1-0.1-0.4,0-0.9c0.1-0.2,0.3-0.9,0.6-2
				c0.2-0.6,0.4-1.2,0.7-1.8c0.1-0.1,0.1-0.2,0.1-0.4c0-0.2-0.3-0.3-0.8-0.4s-0.9,0.1-1,0.5c-0.1,0.2-0.2,0.5-0.3,0.9
				s-0.3,0.7-0.5,1.2c-0.3,0.8-0.8,1.6-1.4,2.3c-0.3,0.3-0.5,0.4-0.7,0.4s-0.5-0.1-0.5-0.4c0-0.1,0-0.1,0-0.2c0-0.1,0-0.2,0.1-0.3
				c0.2-0.7,0.4-1.3,0.7-2c0.2-0.5,0.3-0.8,0.4-1.1l0.3-0.7c0-0.1,0.1-0.2,0.1-0.3c0-0.2-0.2-0.4-0.7-0.5c-0.2-0.1-0.4-0.1-0.6-0.1
				c-0.2,0-0.5,0.1-0.5,0.4c-0.6,1.6-1.1,3.1-1.4,4.8c0,0.1,0,0.2,0,0.2l0,0l-0.3,0.2c-0.2,0.2-0.5,0.3-0.8,0.3c-0.3,0-0.5,0-0.8,0
				c-0.2,0-0.4-0.2-0.4-0.4c0,0,0-0.1,0-0.1c0-0.2,0.1-0.4,0.2-0.5c0.1-0.2,0.2-0.6,0.4-1c0.2-0.5,0.4-1,0.6-1.5
				c0-0.3-0.1-0.5-0.3-0.7c-0.2-0.2-0.5-0.3-0.8-0.5c-0.2-0.1-0.4-0.2-0.5-0.2l-0.3-0.1c-0.1,0-0.1-0.1-0.1-0.1c0,0,0-0.1,0-0.1
				c0.1-0.1,0.1-0.3,0.1-0.4c0-0.5-0.3-0.8-0.7-0.8s-0.8,0.3-0.9,0.9v0.2v0.1c0,0.1,0,0.3,0.1,0.4c0.1,0.1,0.1,0.2,0.1,0.3l0,0
				c0,0,0,0,0,0.1c-0.2,0.7-0.5,1.4-0.9,2.1C20.3,27,20,27.5,19.6,28c-0.2,0.3-0.5,0.5-0.7,0.7c-0.3,0.2-0.6,0.3-0.9,0.4
				c-0.3,0-0.6-0.1-0.8-0.2c-0.1-0.1-0.1-0.2-0.1-0.3c0-0.2,0-0.4,0.1-0.6c0.1-0.2,0.2-0.5,0.3-0.8s0.3-0.6,0.4-1
				c0.5-1,0.8-1.7,0.9-2c0.1-0.2,0.1-0.4,0-0.5c-0.2-0.1-0.4-0.2-0.6-0.2c-0.2,0-0.4,0-0.6,0c-0.1,0-0.2,0.1-0.3,0.2
				c-0.1,0.1-0.1,0.2-0.2,0.2c-0.1,0.1-0.2,0.1-0.4,0c-0.4-0.2-0.8-0.3-1.2-0.3c-0.6,0-1.2,0.2-1.8,0.5c-0.8,0.4-1.4,1.1-1.9,1.9
				c-0.4,0.7-0.6,1.5-0.7,2.3c0,0.5,0.1,1,0.5,1.3c0.3,0.3,0.8,0.5,1.3,0.4c0.7,0,1.3-0.3,1.8-0.8c0.4-0.3,0.7-0.6,0.9-1
				c0,0,0.1-0.1,0.1-0.1c0,0,0.1,0,0.1,0c0,0,0,0.1,0,0.1c-0.1,0.2-0.1,0.5-0.1,0.7c0,0.3,0.2,0.6,0.4,0.8c0.5,0.2,1,0.3,1.6,0.3
				h0.5l0.4,0c0.6-0.1,1.2-0.4,1.6-0.9c0.1-0.1,0.1-0.2,0.1-0.4v-0.1c0.4-0.4,0.7-0.9,1-1.5c0,0,0.1-0.2,0.2-0.5s0.4-0.8,0.6-1.5
				c0.1-0.1,0.1-0.2,0.2-0.1c0.3,0.1,0.5,0.3,0.7,0.5c0.1,0.1,0.1,0.3,0,0.4c-0.2,0.3-0.3,0.6-0.4,0.9c-0.1,0.3-0.2,0.6-0.3,0.9
				s-0.1,0.5-0.2,0.8c0,0.1,0,0.3,0,0.4c0,0.5,0.3,0.9,0.7,1c0.7,0.2,1.5,0.3,2.2,0.1c0.4-0.1,0.8-0.2,1.1-0.4
				c0.1,0.2,0.3,0.3,0.5,0.4c0.2,0.1,0.4,0.1,0.6,0.1c0.9,0,1.8-0.6,2.6-1.8c0-0.1,0-0.1,0.1-0.1l0,0l0,0c0,0,0,0.1,0,0.1
				c-0.1,0.2-0.1,0.5-0.1,0.7c0,0.3,0.1,0.6,0.3,0.7c0.5,0.3,1,0.4,1.6,0.3c0.1,0,0.3,0,0.4,0l0.4-0.1c0.6-0.1,1.2-0.4,1.7-0.9
				c0.1-0.1,0.1-0.2,0.1-0.4v-0.1c0.4-0.4,0.7-0.9,1-1.5c0,0,0.1-0.2,0.2-0.5s0.4-0.8,0.6-1.5c0.1-0.1,0.1-0.2,0.2-0.1
				c0.3,0.1,0.5,0.3,0.7,0.5c0.1,0.1,0.1,0.3,0,0.4c-0.2,0.3-0.3,0.6-0.4,0.9c-0.1,0.3-0.2,0.6-0.3,0.9c-0.1,0.3-0.2,0.5-0.2,0.8
				c0,0.1,0,0.3,0,0.4c0,0.5,0.3,0.9,0.7,1c0.7,0.2,1.5,0.3,2.2,0.1c0.5-0.1,1-0.3,1.4-0.6v0c0.1,0.1,0.3,0.2,0.4,0.3
				c0.5,0.2,1,0.3,1.5,0.3h0.4l0.4,0c0.6-0.1,1.2-0.4,1.7-0.9c0.1-0.1,0.1-0.2,0.1-0.4C45.1,28.4,45.1,28.2,45,28.1z M16.5,25.1
				c-0.4,0.9-0.9,1.8-1.5,2.5c-0.2,0.2-0.3,0.4-0.4,0.5l-0.3,0.3c-0.2,0.2-0.5,0.4-0.8,0.4c-0.4,0-0.6-0.2-0.6-0.8
				c0.1-1.2,0.8-2.3,1.8-3c0.4-0.3,0.8-0.4,1.2-0.4c0.4,0,0.6,0.1,0.6,0.3C16.6,25.1,16.5,25.1,16.5,25.1z"/>
			<path id="_Compound_Path_13" class="st0" d="M12.8,32h-0.8v0.2h0.3l-0.7,2.6h-0.3V35h0.8v-0.2h-0.3l0.2-0.7h0.9l0.2,0.7h-0.3V35
				h1.1v-0.2h-0.3L12.8,32z M12.1,33.9l0.4-1.3l0.4,1.3H12.1z"/>
			<polygon id="_Path_12" class="st0" points="18.8,34.8 18.1,34.8 18.1,32.2 18.5,32.2 18.5,32 17.3,32 17.3,32.2 17.6,32.2 
				17.6,34.8 17.3,34.8 17.3,35 19.1,35 19.1,34.4 18.8,34.4 			"/>
			<polygon id="_Path_13" class="st0" points="24,34.8 23.3,34.8 23.3,33.5 23.8,33.5 23.8,33.8 24.1,33.8 24.1,33.1 23.8,33.1 
				23.8,33.3 23.3,33.3 23.3,32.2 24,32.2 24,32.5 24.2,32.5 24.2,32 22.5,32 22.5,32.2 22.8,32.2 22.8,34.8 22.5,34.8 22.5,35 
				24.2,35 24.2,34.4 24,34.4 			"/>
			<path id="_Path_14" class="st0" d="M29.3,33.4l-0.6-0.3c-0.2-0.1-0.3-0.3-0.3-0.5c0-0.1,0-0.3,0.1-0.3c0.1-0.1,0.2-0.1,0.3-0.1
				c0.2,0,0.4,0.1,0.5,0.2v0.2h0.3v-0.4c-0.2-0.2-0.5-0.3-0.8-0.2c-0.2,0-0.5,0.1-0.7,0.2c-0.1,0.2-0.2,0.4-0.2,0.6
				c0,0.3,0.1,0.6,0.3,0.8c0,0,0.2,0.1,0.6,0.3c0.2,0.1,0.3,0.2,0.3,0.4c0,0.1,0,0.3-0.1,0.3c-0.1,0.1-0.2,0.1-0.3,0.1
				c-0.2,0-0.4-0.1-0.5-0.2v-0.2h-0.3v0.5c0.3,0.2,0.6,0.3,0.9,0.2c0.2,0,0.4-0.1,0.6-0.2c0.2-0.2,0.3-0.5,0.3-0.7
				C29.6,33.8,29.5,33.6,29.3,33.4z"/>
			<polygon id="_Path_15" class="st0" points="34.6,34.8 33.9,34.8 33.9,33.5 34.4,33.5 34.4,33.8 34.7,33.8 34.7,33.1 34.4,33.1 
				34.4,33.3 33.9,33.3 33.9,32.2 34.6,32.2 34.6,32.5 34.8,32.5 34.8,32 33.1,32 33.1,32.2 33.4,32.2 33.4,34.8 33.1,34.8 33.1,35 
				34.9,35 34.9,34.4 34.6,34.4 			"/>
		</g>
	</g>
</g>
</svg>
