<?xml version="1.0" encoding="utf-8"?>
<!-- Generator: Adobe Illustrator 23.0.3, SVG Export Plug-In . SVG Version: 6.00 Build 0)  -->
<svg version="1.1" id="Layer_1" xmlns="http://www.w3.org/2000/svg" xmlns:xlink="http://www.w3.org/1999/xlink" x="0px" y="0px"
	 viewBox="0 0 120.6 93.28" style="enable-background:new 0 0 120.6 93.28;" xml:space="preserve">
<style type="text/css">
	.st0{fill:url(#_Path__1_);}
	.st1{fill:url(#_Path_2_1_);}
	.st2{fill:url(#_Compound_Path__1_);}
	.st3{fill:url(#_Compound_Path_2_1_);}
	.st4{fill:url(#_Compound_Path_3_1_);}
	.st5{fill:url(#_Path_3_1_);}
	.st6{fill:url(#_Compound_Path_4_1_);}
	.st7{fill:url(#_Path_4_1_);}
	.st8{fill:url(#_Path_5_1_);}
	.st9{fill:url(#_Compound_Path_5_1_);}
	.st10{fill:url(#_Path_6_1_);}
	.st11{fill:url(#_Compound_Path_6_1_);}
	.st12{fill:url(#_Path_7_1_);}
	.st13{fill:url(#_Compound_Path_7_1_);}
	.st14{fill:url(#_Path_8_1_);}
	.st15{fill:url(#_Compound_Path_8_1_);}
	.st16{fill:url(#_Compound_Path_9_1_);}
	.st17{fill:url(#_Compound_Path_10_1_);}
	.st18{fill:url(#_Path_9_1_);}
	.st19{fill:url(#_Path_10_1_);}
	.st20{fill:url(#_Compound_Path_11_1_);}
	.st21{fill:url(#_Path_11_1_);}
	.st22{fill:url(#_Compound_Path_12_1_);}
	.st23{fill:url(#_Compound_Path_13_1_);}
	.st24{fill:url(#_Path_12_1_);}
	.st25{fill:url(#_Path_13_1_);}
	.st26{fill:url(#_Path_14_1_);}
	.st27{fill:url(#_Path_15_1_);}
</style>
<g>
	<g id="Layer_1-2">
		<g id="_Group_">
			
				<linearGradient id="_Path__1_" gradientUnits="userSpaceOnUse" x1="46.41" y1="109.8846" x2="48.62" y2="112.0946" gradientTransform="matrix(1 0 0 -1 0 113.4646)">
				<stop  offset="0" style="stop-color:#DFB98A"/>
				<stop  offset="1" style="stop-color:#CC9963"/>
			</linearGradient>
			<path id="_Path_" class="st0" d="M47.84,5c0.6-0.8,0.88-1.79,0.79-2.78c-0.11-0.74-0.49-1.42-1.07-1.89l0,0l-0.2-0.16L47.14,0
				L47,0.2c-0.06,0.07-0.1,0.14-0.15,0.21l0,0l0,0c-0.43,0.62-0.61,1.37-0.51,2.11C46.51,3.51,47.05,4.39,47.84,5z"/>
			
				<linearGradient id="_Path_2_1_" gradientUnits="userSpaceOnUse" x1="38.2986" y1="100.4732" x2="40.5086" y2="102.6832" gradientTransform="matrix(1 0 0 -1 0 113.4646)">
				<stop  offset="0" style="stop-color:#DFB98A"/>
				<stop  offset="1" style="stop-color:#CC9963"/>
			</linearGradient>
			<path id="_Path_2" class="st1" d="M37.25,11.92L37.25,11.92c0.48,0.59,1.16,0.97,1.91,1.08c0.99,0.09,1.99-0.2,2.78-0.8
				c-0.6-0.8-1.48-1.34-2.46-1.52c-0.74-0.1-1.49,0.08-2.11,0.51l0,0l0,0l-0.21,0.14l-0.21,0.16l0.16,0.2
				C37.15,11.77,37.2,11.85,37.25,11.92z"/>
			
				<linearGradient id="_Compound_Path__1_" gradientUnits="userSpaceOnUse" x1="39.5725" y1="75.5921" x2="43.2342" y2="79.2538" gradientTransform="matrix(1 0 0 -1 0 113.4646)">
				<stop  offset="0" style="stop-color:#DFB98A"/>
				<stop  offset="1" style="stop-color:#CC9963"/>
			</linearGradient>
			<path id="_Compound_Path_" class="st2" d="M37.1,34.36L37.1,34.36L37.1,34.36C37.57,35.9,38.61,37.2,40,38
				c2.1,1.19,3.8,0.93,6,0.62c-0.85-2.07-1.49-3.67-3.58-4.86c-1.37-0.76-2.96-0.99-4.49-0.65l0,0l-0.52,0.13l-0.52,0.14l0.14,0.51
				C37,34,37,34.19,37.1,34.36z M41.79,34.73c1.13,0.66,2.01,1.68,2.51,2.89c-1.3,0.19-2.62-0.05-3.77-0.69
				c-1.05-0.62-1.85-1.59-2.25-2.75C39.48,33.94,40.72,34.13,41.79,34.73z"/>
			
				<linearGradient id="_Compound_Path_2_1_" gradientUnits="userSpaceOnUse" x1="37.7199" y1="93.7246" x2="44.9099" y2="100.9146" gradientTransform="matrix(1 0 0 -1 0 113.4646)">
				<stop  offset="0" style="stop-color:#DFB98A"/>
				<stop  offset="1" style="stop-color:#CC9963"/>
			</linearGradient>
			<path id="_Compound_Path_2" class="st3" d="M37.84,19.08L37.84,19.08c1.53,0.34,3.12,0.11,4.49-0.65
				c2.09-1.2,2.73-2.79,3.58-4.86c-2.21-0.31-3.91-0.58-6,0.62c-1.35,0.79-2.36,2.05-2.83,3.54l0,0v0.05
				c-0.06,0.17-0.11,0.34-0.16,0.51l-0.14,0.51l0.52,0.14L37.84,19.08z M40.53,15.22c1.15-0.64,2.47-0.88,3.77-0.69
				c-0.5,1.21-1.38,2.23-2.51,2.89c-1.07,0.6-2.31,0.79-3.51,0.55C38.68,16.81,39.48,15.84,40.53,15.22z"/>
			
				<linearGradient id="_Compound_Path_3_1_" gradientUnits="userSpaceOnUse" x1="48.2444" y1="104.1902" x2="55.4344" y2="111.3802" gradientTransform="matrix(1 0 0 -1 0 113.4646)">
				<stop  offset="0" style="stop-color:#DFB98A"/>
				<stop  offset="1" style="stop-color:#CC9963"/>
			</linearGradient>
			<path id="_Compound_Path_3" class="st4" d="M54.12,6.7c0.76-1.37,0.99-2.97,0.64-4.49l0,0l0,0l-0.12-0.52L54.5,1.18L54,1.27
				c-0.17,0-0.34,0.1-0.51,0.15h-0.05l0,0c-1.49,0.48-2.75,1.49-3.54,2.84c-1.19,2.09-0.93,3.79-0.62,6
				C51.32,9.43,52.92,8.79,54.12,6.7z M50.89,4.86c0.62-1.05,1.6-1.85,2.75-2.25c0.24,1.2,0.05,2.44-0.54,3.51
				c-0.67,1.13-1.68,2-2.89,2.5C50.02,7.33,50.26,6.01,50.89,4.86z"/>
			
				<linearGradient id="_Path_3_1_" gradientUnits="userSpaceOnUse" x1="74.4613" y1="109.5532" x2="77.3113" y2="112.4032" gradientTransform="matrix(1 0 0 -1 0 113.4646)">
				<stop  offset="0" style="stop-color:#DFB98A"/>
				<stop  offset="1" style="stop-color:#CC9963"/>
			</linearGradient>
			<path id="_Path_3" class="st5" d="M77.08,2.54c0.1-0.74-0.08-1.49-0.51-2.11l0,0l0,0c-0.05-0.08-0.11-0.16-0.17-0.23L76.25,0
				l-0.2,0.15l-0.2,0.16l0,0c-0.58,0.47-0.96,1.15-1.07,1.89c-0.1,1,0.17,2,0.77,2.8C76.35,4.4,76.9,3.52,77.08,2.54z"/>
			
				<linearGradient id="_Compound_Path_4_1_" gradientUnits="userSpaceOnUse" x1="69.8286" y1="105.9681" x2="73.4886" y2="109.6282" gradientTransform="matrix(1 0 0 -1 0 113.4646)">
				<stop  offset="0" style="stop-color:#DFB98A"/>
				<stop  offset="1" style="stop-color:#CC9963"/>
			</linearGradient>
			<path id="_Compound_Path_4" class="st6" d="M69.38,6.7c1.2,2.09,2.8,2.73,4.86,3.58c0.32-2.21,0.58-3.91-0.61-6
				c-0.79-1.35-2.05-2.36-3.54-2.84l0,0l0,0c-0.17,0-0.34-0.11-0.51-0.15L69,1.13l-0.14,0.51c-0.05,0.17-0.09,0.34-0.12,0.52l0,0
				l0,0C68.38,3.7,68.61,5.32,69.38,6.7z M69.86,2.61c1.15,0.4,2.13,1.2,2.75,2.25c0.63,1.15,0.87,2.47,0.68,3.76
				c-1.21-0.5-2.22-1.37-2.89-2.5C69.81,5.05,69.62,3.81,69.86,2.61z"/>
			
				<linearGradient id="_Path_4_1_" gradientUnits="userSpaceOnUse" x1="83.0025" y1="72.0821" x2="85.2125" y2="74.2921" gradientTransform="matrix(1 0 0 -1 0 113.4646)">
				<stop  offset="0" style="stop-color:#DFB98A"/>
				<stop  offset="1" style="stop-color:#CC9963"/>
			</linearGradient>
			<path id="_Path_4" class="st7" d="M86.25,40.23L86.25,40.23c-0.47-0.58-1.15-0.96-1.89-1.07c-0.99-0.09-1.98,0.19-2.78,0.79
				c0.59,0.78,1.46,1.32,2.42,1.51c0.74,0.12,1.5-0.05,2.13-0.46l0,0l0,0l0.21-0.14l0.2-0.16l-0.15-0.2
				C86.35,40.41,86.31,40.32,86.25,40.23z"/>
			
				<linearGradient id="_Path_5_1_" gradientUnits="userSpaceOnUse" x1="74.8175" y1="63.9571" x2="77.0275" y2="66.1671" gradientTransform="matrix(1 0 0 -1 0 113.4646)">
				<stop  offset="0" style="stop-color:#DFB98A"/>
				<stop  offset="1" style="stop-color:#CC9963"/>
			</linearGradient>
			<path id="_Path_5" class="st8" d="M75.61,45.88c-0.6,0.8-0.89,1.79-0.8,2.79c0.12,0.74,0.5,1.41,1.07,1.89l0,0l0.2,0.16
				l0.21,0.15l0.15-0.2l0.15-0.21l0,0c0.43-0.62,0.61-1.37,0.51-2.11C76.93,47.37,76.4,46.49,75.61,45.88z"/>
			
				<linearGradient id="_Compound_Path_5_1_" gradientUnits="userSpaceOnUse" x1="78.5481" y1="73.8851" x2="85.7481" y2="81.0751" gradientTransform="matrix(1 0 0 -1 0 113.4646)">
				<stop  offset="0" style="stop-color:#DFB98A"/>
				<stop  offset="1" style="stop-color:#CC9963"/>
			</linearGradient>
			<path id="_Compound_Path_5" class="st9" d="M86.18,33.2l-0.52-0.13l0,0c-1.53-0.34-3.12-0.11-4.49,0.65
				c-2.17,1.18-2.78,2.78-3.63,4.85c2.21,0.31,3.91,0.57,6-0.62c1.35-0.79,2.36-2.05,2.83-3.54l0,0l0,0
				c0.06-0.17,0.11-0.34,0.16-0.51l0.14-0.51L86.18,33.2z M83,36.93c-1.14,0.63-2.46,0.88-3.76,0.69c0.5-1.21,1.37-2.22,2.5-2.89
				c1.07-0.6,2.32-0.79,3.52-0.55C84.86,35.34,84.06,36.31,83,36.93z"/>
			
				<linearGradient id="_Path_6_1_" gradientUnits="userSpaceOnUse" x1="46.116" y1="63.6485" x2="48.966" y2="66.4985" gradientTransform="matrix(1 0 0 -1 0 113.4646)">
				<stop  offset="0" style="stop-color:#DFB98A"/>
				<stop  offset="1" style="stop-color:#CC9963"/>
			</linearGradient>
			<path id="_Path_6" class="st10" d="M46.37,48.35c-0.1,0.74,0.08,1.49,0.51,2.11l0,0l0.15,0.21l0.15,0.2l0.21-0.15l0.2-0.16l0,0
				c0.58-0.48,0.95-1.15,1.06-1.89c0.09-1-0.19-1.99-0.79-2.79C47.07,46.49,46.54,47.37,46.37,48.35z"/>
			
				<linearGradient id="_Compound_Path_6_1_" gradientUnits="userSpaceOnUse" x1="68.0588" y1="63.4071" x2="75.2588" y2="70.5971" gradientTransform="matrix(1 0 0 -1 0 113.4646)">
				<stop  offset="0" style="stop-color:#DFB98A"/>
				<stop  offset="1" style="stop-color:#CC9963"/>
			</linearGradient>
			<path id="_Compound_Path_6" class="st11" d="M68.75,50c0.03,0.18,0.07,0.35,0.12,0.52L69,51l0.52-0.14
				c0.17-0.04,0.34-0.1,0.5-0.16h0.06c1.49-0.48,2.75-1.49,3.54-2.84c1.19-2.09,0.93-3.79,0.61-6c-2.06,0.86-3.66,1.5-4.86,3.59
				c-0.76,1.37-0.99,2.97-0.64,4.49l0,0L68.75,50z M70.4,46c0.67-1.13,1.68-2,2.89-2.5c0.19,1.29-0.05,2.61-0.68,3.76
				c-0.62,1.05-1.6,1.85-2.75,2.25C69.62,48.31,69.81,47.07,70.4,46z"/>
			
				<linearGradient id="_Path_7_1_" gradientUnits="userSpaceOnUse" x1="38.0013" y1="71.7732" x2="40.8513" y2="74.6232" gradientTransform="matrix(1 0 0 -1 0 113.4646)">
				<stop  offset="0" style="stop-color:#DFB98A"/>
				<stop  offset="1" style="stop-color:#CC9963"/>
			</linearGradient>
			<path id="_Path_7" class="st12" d="M39.48,41.46c0.98-0.18,1.86-0.73,2.46-1.53c-0.8-0.6-1.79-0.88-2.78-0.79
				c-0.74,0.11-1.42,0.49-1.89,1.07l0,0c-0.06,0.06-0.11,0.13-0.16,0.2l-0.16,0.2l0.21,0.16l0.21,0.14l0,0l0,0
				C37.98,41.35,38.73,41.55,39.48,41.46z"/>
			
				<linearGradient id="_Compound_Path_7_1_" gradientUnits="userSpaceOnUse" x1="50.0025" y1="65.1721" x2="53.6625" y2="68.8221" gradientTransform="matrix(1 0 0 -1 0 113.4646)">
				<stop  offset="0" style="stop-color:#DFB98A"/>
				<stop  offset="1" style="stop-color:#CC9963"/>
			</linearGradient>
			<path id="_Compound_Path_7" class="st13" d="M54.12,45.45c-1.2-2.09-2.8-2.73-4.87-3.59c-0.31,2.22-0.57,3.92,0.62,6
				c0.79,1.35,2.05,2.36,3.54,2.84h0.05c0.17,0.06,0.34,0.12,0.51,0.16L54.49,51l0.14-0.51l0.12-0.52v-0.05l0,0
				C55.1,48.4,54.87,46.81,54.12,45.45z M53.64,49.54c-1.15-0.4-2.13-1.2-2.75-2.25c-0.63-1.15-0.87-2.47-0.68-3.76
				c1.21,0.49,2.22,1.36,2.89,2.47C53.7,47.08,53.89,48.33,53.64,49.54z"/>
			
				<linearGradient id="_Path_8_1_" gradientUnits="userSpaceOnUse" x1="82.6369" y1="100.1677" x2="85.4869" y2="103.0177" gradientTransform="matrix(1 0 0 -1 0 113.4646)">
				<stop  offset="0" style="stop-color:#DFB98A"/>
				<stop  offset="1" style="stop-color:#CC9963"/>
			</linearGradient>
			<path id="_Path_8" class="st14" d="M84,10.69c-0.98,0.18-1.86,0.72-2.46,1.52c0.79,0.6,1.79,0.89,2.78,0.8
				c0.74-0.11,1.42-0.49,1.89-1.07l0,0c0.06-0.06,0.11-0.13,0.16-0.2l0.15-0.2l-0.2-0.16l-0.21-0.14l0,0l0,0
				C85.5,10.8,84.75,10.6,84,10.69z"/>
			
				<linearGradient id="_Compound_Path_8_1_" gradientUnits="userSpaceOnUse" x1="38.065" y1="63.6896" x2="85.44" y2="111.0746" gradientTransform="matrix(1 0 0 -1 0 113.4646)">
				<stop  offset="0" style="stop-color:#DFB98A"/>
				<stop  offset="1" style="stop-color:#CC9963"/>
			</linearGradient>
			<path id="_Compound_Path_8" class="st15" d="M38.07,4L38.07,4c0.1,2.21,1.01,4.31,2.55,5.89c1.71,1.65,3.94,2.66,6.31,2.87
				c-0.07,1.59-0.39,3.17-0.93,4.67c-0.82,2.69-2.18,5.19-4,7.34c-0.72-0.64-1.83-0.58-2.47,0.14c-0.64,0.72-0.58,1.83,0.14,2.47
				c0.66,0.59,1.67,0.59,2.33,0c1.82,2.15,3.18,4.65,4,7.34c0.55,1.51,0.86,3.1,0.93,4.71c-2.37,0.21-4.6,1.22-6.31,2.87
				c-1.54,1.58-2.45,3.68-2.55,5.89l0,0v0.08c0,0.25,0,0.5,0,0.75v0.76h0.75c0.25,0,0.51,0,0.76,0h0.07
				c2.21-0.1,4.31-1.01,5.89-2.56c1.66-1.7,2.67-3.93,2.87-6.3c1.61,0.06,3.2,0.37,4.71,0.92c2.69,0.83,5.19,2.19,7.34,4
				c-0.65,0.72-0.59,1.84,0.13,2.49c0.72,0.65,1.84,0.59,2.49-0.13c0.6-0.67,0.6-1.68,0-2.35c2.15-1.81,4.64-3.17,7.33-4
				c1.52-0.55,3.11-0.86,4.72-0.92c0.2,2.36,1.22,4.57,2.87,6.27c1.58,1.55,3.68,2.46,5.89,2.56h0.07c0.25,0,0.51,0,0.76,0h0.75V49
				c0-0.25,0-0.5,0-0.75v-0.08l0,0c-0.1-2.21-1.01-4.31-2.55-5.89c-1.71-1.65-3.94-2.66-6.31-2.87c0.06-1.61,0.38-3.2,0.93-4.71
				c0.8-2.66,2.13-5.13,3.91-7.26c0.73,0.63,1.83,0.56,2.47-0.17s0.56-1.83-0.17-2.47c-0.64-0.55-1.58-0.57-2.24-0.05
				c-1.82-2.15-3.18-4.65-4-7.34c-0.55-1.51-0.87-3.1-0.93-4.71c2.37-0.21,4.6-1.22,6.31-2.87c1.52-1.57,2.42-3.64,2.53-5.83l0,0
				V3.88c0-0.25,0-0.5,0-0.75V2.37H84.7c-0.25,0-0.51,0-0.76,0h-0.07C81.66,2.49,79.57,3.43,78,5c-1.66,1.71-2.67,3.94-2.87,6.31
				c-1.61-0.06-3.21-0.37-4.72-0.93c-2.74-0.83-5.29-2.22-7.47-4.08c0.65-0.72,0.59-1.83-0.13-2.47c-0.72-0.65-1.83-0.59-2.47,0.12
				c-0.68,0.67-0.69,1.78-0.02,2.46c0.01,0.01,0.01,0.01,0.02,0.02l0,0c-2.14,1.77-4.61,3.1-7.27,3.9c-1.51,0.56-3.1,0.87-4.71,0.93
				c-0.2-2.35-1.2-4.56-2.84-6.26c-1.58-1.56-3.67-2.49-5.89-2.6h-0.07c-0.25,0-0.51,0-0.76,0h-0.75v0.76c0,0.25,0,0.5,0,0.75
				L38.07,4z M44.34,46c-1.24,1.19-2.87,1.9-4.59,2c0.1-1.72,0.81-3.34,2-4.59c1.33-1.3,3.05-2.12,4.89-2.34
				C46.43,42.92,45.63,44.65,44.34,46z M81.7,43.48c1.19,1.25,1.9,2.87,2,4.59c-1.72-0.1-3.35-0.81-4.6-2
				c-1.29-1.33-2.11-3.04-2.33-4.88C78.62,41.39,80.35,42.2,81.7,43.48z M79.15,6.13c1.25-1.19,2.88-1.9,4.6-2
				c-0.1,1.72-0.81,3.34-2,4.59C80.4,10,78.66,10.8,76.81,11C77.04,9.17,77.86,7.46,79.15,6.13z M48.6,12.93
				c1.71-0.09,3.39-0.43,5-1c3-0.92,5.79-2.44,8.17-4.49c2.38,2.05,5.17,3.57,8.17,4.49c1.61,0.57,3.29,0.91,5,1
				c0.09,1.71,0.43,3.39,1,5c0.91,3.01,2.44,5.8,4.49,8.18c-2.06,2.38-3.59,5.16-4.49,8.17c-0.57,1.61-0.91,3.29-1,5
				c-1.71,0.08-3.39,0.42-5,1c-3,0.92-5.79,2.44-8.17,4.49c-2.38-2.05-5.17-3.57-8.17-4.49c-1.61-0.58-3.29-0.92-5-1
				c-0.09-1.71-0.43-3.39-1-5c-0.9-3.01-2.43-5.79-4.49-8.17c2.06-2.39,3.59-5.19,4.49-8.21C48.17,16.3,48.51,14.63,48.6,12.93z
				 M44.34,6.13c1.29,1.32,2.12,3.03,2.34,4.87c-1.84-0.22-3.55-1.04-4.88-2.33c-1.19-1.25-1.9-2.87-2-4.59
				C41.51,4.2,43.12,4.93,44.34,6.13z"/>
			
				<linearGradient id="_Compound_Path_9_1_" gradientUnits="userSpaceOnUse" x1="80.3275" y1="95.4671" x2="83.9875" y2="99.1271" gradientTransform="matrix(1 0 0 -1 0 113.4646)">
				<stop  offset="0" style="stop-color:#DFB98A"/>
				<stop  offset="1" style="stop-color:#CC9963"/>
			</linearGradient>
			<path id="_Compound_Path_9" class="st16" d="M86.56,18.3c0-0.17-0.1-0.34-0.16-0.51v-0.05l0,0c-0.47-1.49-1.48-2.75-2.83-3.54
				c-2.1-1.2-3.8-0.93-6-0.62c0.85,2.07,1.49,3.66,3.58,4.86c1.37,0.76,2.96,0.99,4.49,0.65l0,0l0.52-0.13l0.52-0.14L86.56,18.3z
				 M81.7,17.42c-1.13-0.67-2-1.68-2.5-2.89c1.3-0.19,2.62,0.06,3.76,0.69c1.06,0.62,1.87,1.61,2.26,2.78
				C84.02,18.23,82.77,18.03,81.7,17.42z"/>
			
				<linearGradient id="_Compound_Path_10_1_" gradientUnits="userSpaceOnUse" x1="55.2764" y1="84.3282" x2="68.3964" y2="97.4482" gradientTransform="matrix(1 0 0 -1 0 113.4646)">
				<stop  offset="0" style="stop-color:#DFB98A"/>
				<stop  offset="1" style="stop-color:#CC9963"/>
			</linearGradient>
			<path id="_Compound_Path_10" class="st17" d="M52,25.76l9.37,4.72c0.28,0.15,0.62,0.15,0.9,0l5.5-2.77l3.91-2
				c0.28-0.11,0.47-0.38,0.47-0.68c0-1.06,0-2.11,0-3.17c0.03-0.34-0.19-0.65-0.52-0.72c-0.52-0.18-1-0.36-1.58-0.52
				c-0.09-0.01-0.18,0.01-0.25,0.06c-0.2,0.16-0.37,0.35-0.57,0.51c-0.87,0.64-1.83,1.17-2.84,1.55l-0.15,0.08l1.29,0.52
				c0.12,0.03,0.2,0.15,0.18,0.27v3.19c0.01,0.12-0.06,0.23-0.17,0.28L65.76,28l-0.2,0.08v-0.29c0-1.05,0-2.09,0-3.14
				c0.01-0.15-0.08-0.29-0.22-0.35c-0.34-0.16-0.67-0.34-1-0.52l-1.2-0.64l0.87-0.26c1.33-0.39,2.61-0.92,3.83-1.58
				c0.76-0.39,1.4-0.96,1.88-1.66c0.39-0.5,0.49-1.17,0.28-1.77c-0.18-0.39-0.45-0.74-0.79-1c-0.35-0.31-0.69-0.65-1-1
				c-0.39-0.51-0.95-0.86-1.57-1h-0.37c-1.26,0.41-2.28,1.36-2.77,2.59c-0.68,1.35-1.22,2.77-1.61,4.23
				c-0.02,0.04-0.04,0.08-0.06,0.12c-0.13-0.42-0.24-0.8-0.36-1.18c-0.42-1.4-1.02-2.75-1.79-4c-0.42-0.7-1.05-1.26-1.8-1.6
				c-0.15-0.06-0.32-0.1-0.48-0.15H57c-0.51,0.13-0.97,0.41-1.32,0.8c-0.44,0.47-0.9,0.92-1.36,1.37c-0.84,0.64-1,1.84-0.36,2.68
				c0.01,0.02,0.03,0.04,0.04,0.05c0.44,0.59,1,1.07,1.65,1.42c1.07,0.6,2.21,1.09,3.38,1.45l1.41,0.45l-0.19,0.12l-2,1
				c-0.15,0.05-0.24,0.2-0.23,0.36c0,1.05,0,2.1,0,3.14V28H58c-0.63-0.32-1.26-0.63-1.89-1c-0.07-0.07-0.12-0.16-0.12-0.26
				c0-1,0-2.08,0-3.12c-0.02-0.13,0.07-0.25,0.2-0.28c0.42-0.16,0.84-0.34,1.29-0.53c-0.31-0.13-0.59-0.25-0.86-0.38
				c-1.02-0.41-1.94-1.01-2.73-1.77c-0.08-0.03-0.16-0.03-0.24,0l-1.49,0.49c-0.38,0.07-0.65,0.42-0.62,0.81c0,1,0,2,0,3
				C51.51,25.3,51.69,25.62,52,25.76z M63.25,20.76c0.36-1.19,0.86-2.34,1.49-3.42c0.28-0.54,0.69-1,1.2-1.34
				c0.34-0.27,0.84-0.22,1.11,0.12c0.37,0.37,0.72,0.77,1.09,1.15c0.19,0.19,0.41,0.35,0.6,0.54c0.37,0.29,0.43,0.81,0.14,1.18
				c-0.01,0.01-0.02,0.03-0.03,0.04c-0.39,0.54-0.89,0.98-1.48,1.29c-1.39,0.74-2.85,1.32-4.37,1.75h-0.13
				c0.13-0.47,0.23-0.91,0.37-1.35L63.25,20.76z M58.93,21.54c-1.13-0.37-2.21-0.88-3.21-1.54c-0.4-0.26-0.74-0.6-1-1
				c-0.27-0.35-0.21-0.85,0.14-1.12c0.17-0.16,0.36-0.3,0.52-0.46c0.33-0.33,0.65-0.67,1-1c0.06-0.08,0.13-0.15,0.21-0.22
				c0.3-0.35,0.83-0.4,1.18-0.1c0.57,0.4,1.03,0.93,1.34,1.55c0.72,1.38,1.28,2.84,1.68,4.35c0,0,0,0,0,0.1
				c-0.65-0.2-1.26-0.38-1.87-0.6L58.93,21.54z"/>
			
				<linearGradient id="_Path_9_1_" gradientUnits="userSpaceOnUse" x1="55.6319" y1="77.2827" x2="68.0519" y2="89.7127" gradientTransform="matrix(1 0 0 -1 0 113.4646)">
				<stop  offset="0" style="stop-color:#DFB98A"/>
				<stop  offset="1" style="stop-color:#CC9963"/>
			</linearGradient>
			<path id="_Path_9" class="st18" d="M71.15,26.84L70,27.42c-0.15,0.05-0.24,0.2-0.22,0.35c0,1.46,0,2.91,0,4.37
				c0.02,0.14-0.06,0.27-0.19,0.32c-0.28,0.15-0.56,0.32-0.83,0.49c-1.74,1-3.48,2-5.21,3l-1,0.57v-5.35c-0.44,0.23-0.96,0.23-1.4,0
				v5.34l-1.33-0.78l-5.71-3.29c-0.13-0.06-0.2-0.18-0.19-0.32v-4.34c0-0.09,0-0.23-0.06-0.26l-1.32-0.68c0,0.08,0,0.11,0,0.14v5.75
				c-0.01,0.28,0.15,0.55,0.41,0.67l3.73,2.15c1.56,0.9,3.12,1.79,4.67,2.7c0.32,0.22,0.73,0.22,1.05,0c1.15-0.68,2.31-1.34,3.47-2
				c1.62-0.94,3.24-1.88,4.87-2.81c0.3-0.15,0.48-0.47,0.46-0.81c0-1.69,0-3.38,0-5.08L71.15,26.84z"/>
			
				<linearGradient id="_Path_10_1_" gradientUnits="userSpaceOnUse" x1="61.3725" y1="94.5621" x2="62.2225" y2="95.4121" gradientTransform="matrix(1 0 0 -1 0 113.4646)">
				<stop  offset="0" style="stop-color:#DFB98A"/>
				<stop  offset="1" style="stop-color:#CC9963"/>
			</linearGradient>
			<path id="_Path_10" class="st19" d="M62.3,18.13c-0.31-0.19-0.69-0.19-1,0c0.15,0.4,0.31,0.78,0.48,1.21L62.3,18.13z"/>
			
				<linearGradient id="_Compound_Path_11_1_" gradientUnits="userSpaceOnUse" x1="7.8652" y1="40.6499" x2="31.1358" y2="63.9205" gradientTransform="matrix(1 0 0 -1 0 113.4646)">
				<stop  offset="0" style="stop-color:#DFB98A"/>
				<stop  offset="1" style="stop-color:#CC9963"/>
			</linearGradient>
			<path id="_Compound_Path_11" class="st20" d="M31.46,51.25c-0.76-1.1-1.82-1.96-3.06-2.47c-0.53-0.21-0.74-0.45-0.6-0.74
				l0.3-0.55c0.09-0.16,0.17-0.29,0.22-0.39c0.05-0.07,0.08-0.15,0.08-0.24c0-0.2-0.51-0.33-1.53-0.39c-0.44-0.1-0.91-0.1-1.35,0
				c-0.23,0.09-0.43,0.23-0.6,0.41l-0.42,0.49c-0.23,0.19-0.51,0.29-0.81,0.28c-1.62,0.01-3.23,0.24-4.79,0.7
				c-3.18,0.86-6.05,2.59-8.29,5c-0.91,0.95-1.73,1.98-2.46,3.08c-0.69,1.05-1.27,2.17-1.73,3.34c-0.63,1.53-0.97,3.17-1,4.82
				c-0.01,0.38,0.03,0.76,0.13,1.13c0.14,0.77,0.82,1.31,1.6,1.28c0.16-0.01,0.32-0.04,0.48-0.08c0.35-0.11,0.62-0.41,0.68-0.78
				c0-0.29,0.06-0.58,0.08-0.86s0.07-0.58,0.12-0.87c0.41-2.5,1.99-5.29,4.72-8.37c2.84-3.27,5.48-4.97,7.93-5.09
				c0.59,0,0.88,0.09,0.88,0.35c-0.02,0.21-0.12,0.41-0.28,0.55c-0.7,0.77-2.11,3.66-4.23,8.68l-2,4.93
				c-0.54,1.33-0.95,2.36-1.25,3.09c-0.09,0.27-0.25,0.51-0.46,0.69c-0.28,0.1-0.58,0.12-0.87,0.06c-0.21-0.01-0.43-0.01-0.64,0
				h-0.73c-2.81,0-4.33,0.61-4.54,1.84s0.93,2,3.46,2.19c1.57,0,3.12-0.4,4.5-1.17c0.78-0.22,1.61-0.14,2.33,0.23
				c0.43,0.15,0.88,0.23,1.33,0.24h0.56h1.41c2.27-0.02,4.47-0.81,6.24-2.23c2.58-2,4.42-5,5.52-9c0.42-1.49,0.65-3.03,0.68-4.58
				C33.13,54.84,32.57,52.89,31.46,51.25z M27.52,62c-0.52,1.23-1.12,2.44-1.79,3.6c-0.46,0.81-1.03,1.56-1.68,2.23
				c-1.49,1.39-3.47,2.13-5.51,2.07c-0.7,0-1.05-0.11-1.05-0.35l0.08-0.23c0.86-1.6,1.63-3.11,2.32-4.54
				c0.64-1.35,1.22-2.74,1.71-4.15c0.45-1.28,1.18-3,2.17-5.13c0.52-1.27,1.13-2.49,1.81-3.68c0.38-0.53,0.67-0.79,0.89-0.79
				c0.18,0.01,0.35,0.05,0.52,0.12c1.51,0.52,2.27,1.89,2.26,4.11C29.15,57.6,28.56,59.9,27.52,62z"/>
			
				<linearGradient id="_Path_11_1_" gradientUnits="userSpaceOnUse" x1="109.5282" y1="62.7263" x2="113.1582" y2="66.3564" gradientTransform="matrix(1 0 0 -1 0 113.4646)">
				<stop  offset="0" style="stop-color:#DFB98A"/>
				<stop  offset="1" style="stop-color:#CC9963"/>
			</linearGradient>
			<path id="_Path_11" class="st21" d="M110.28,51.21c0.27,0.11,0.56,0.16,0.85,0.16c0.98-0.06,1.86-0.64,2.29-1.53
				c0.23-0.39,0.34-0.84,0.33-1.29c0.03-0.84-0.49-1.61-1.29-1.88c-0.25-0.08-0.51-0.12-0.77-0.12c-0.86-0.11-1.7,0.31-2.13,1.06
				c-0.34,0.56-0.53,1.19-0.56,1.84C109,50.25,109.51,50.97,110.28,51.21z"/>
			
				<linearGradient id="_Compound_Path_12_1_" gradientUnits="userSpaceOnUse" x1="51.4057" y1="24.036" x2="97.083" y2="69.7133" gradientTransform="matrix(1 0 0 -1 0 113.4646)">
				<stop  offset="0" style="stop-color:#DFB98A"/>
				<stop  offset="1" style="stop-color:#CC9963"/>
			</linearGradient>
			<path id="_Compound_Path_12" class="st22" d="M114.67,68.12c-0.08-0.23-0.19-0.27-0.32-0.11c-0.29,0.38-0.62,0.71-1,1
				c-0.39,0.32-0.81,0.6-1.24,0.85c-0.6,0.4-1.28,0.64-2,0.7c-1.01,0.1-2.02-0.13-2.89-0.66c-0.21-0.19-0.31-0.47-0.29-0.75
				c0.05-0.51,0.16-1.01,0.33-1.49c0.61-1.74,1.19-3.42,1.73-5c0.54-1.58,1.06-3.12,1.57-4.58c0.05-0.31,0-0.62-0.14-0.9
				c-0.11-0.25-0.32-0.44-0.59-0.51c-0.94-0.23-1.93-0.2-2.86,0.08c-0.5,0.19-0.86,0.64-0.92,1.17c-0.27,0.84-0.53,1.68-0.79,2.51
				s-0.51,1.67-0.78,2.51c-0.46,1.48-0.8,2.68-1,3.58c-0.16,0.59-0.29,1.18-0.38,1.78c0,0.33,0,0.63,0,0.9
				c-0.32,0.25-0.65,0.47-1,0.67c-0.61,0.37-1.29,0.61-2,0.7c-0.64,0.08-1.29,0.08-1.93,0c-0.55,0-1-0.45-1-1
				c0-0.13,0.02-0.25,0.07-0.37c0.06-0.23,0.2-0.66,0.42-1.27s0.56-1.42,1-2.41c0.55-1.19,1.02-2.42,1.41-3.68
				c0.12-0.64-0.12-1.29-0.64-1.68c-0.62-0.44-1.27-0.83-1.94-1.18c-0.48-0.26-0.88-0.46-1.2-0.6c-0.33-0.15-0.58-0.26-0.77-0.36
				c-0.14-0.05-0.26-0.14-0.36-0.25c-0.06-0.11-0.06-0.24,0-0.35c0.14-0.32,0.2-0.66,0.2-1c-0.11-1.25-0.68-1.89-1.73-1.92
				c-1.24,0-2,0.71-2.3,2.19L91.3,57c0,0.13,0,0.25,0,0.36c0,0.35,0.08,0.69,0.24,1c0.13,0.22,0.23,0.45,0.29,0.7
				c0,0.03,0,0.07,0,0.1c-0.03,0.07-0.05,0.14-0.06,0.21c-0.52,1.78-1.21,3.52-2.06,5.17c-0.55,1.19-1.22,2.32-2,3.37
				c-0.55,0.64-1.15,1.23-1.81,1.76c-0.63,0.42-1.32,0.72-2.06,0.88c-0.77,0.01-1.52-0.25-2.13-0.72c-0.32-0.32-0.36-1-0.12-2.2
				c0.14-0.57,0.66-2.16,1.57-4.77c0.86-2.53,1.38-4,1.57-4.31c0.17-0.27,0.26-0.58,0.28-0.9c0-0.47-0.63-0.77-1.89-0.9
				c-1.37-0.13-2.2,0.31-2.49,1.33c-0.19,0.58-0.45,1.27-0.77,2.1s-0.74,1.79-1.25,2.91c-0.8,2.04-1.91,3.94-3.3,5.64
				c-0.43,0.54-1.02,0.91-1.69,1.06c-0.72,0-1.09-0.29-1.09-0.86c0-0.18,0.03-0.36,0.06-0.53c0-0.22,0.09-0.49,0.14-0.8
				c0.46-1.62,1.03-3.2,1.7-4.74c0.42-1.1,0.78-2,1.06-2.7s0.51-1.24,0.67-1.61c0.11-0.22,0.17-0.46,0.2-0.7
				c0-0.53-0.54-0.94-1.61-1.26c-0.51-0.17-1.04-0.26-1.57-0.27c-0.58-0.06-1.12,0.3-1.29,0.86c-2.2,6.47-3.35,10.32-3.46,11.55
				c0,0.21-0.02,0.4-0.06,0.57v0.06c-0.26,0.19-0.54,0.36-0.82,0.51c-0.61,0.37-1.29,0.61-2,0.7c-0.64,0.08-1.29,0.08-1.93,0
				c-0.55,0-1-0.45-1-1c0-0.13,0.02-0.25,0.07-0.37c0.05-0.23,0.2-0.66,0.42-1.27s0.56-1.42,1-2.41c0.55-1.19,1.02-2.42,1.41-3.68
				c0.12-0.64-0.13-1.29-0.65-1.68c-0.61-0.44-1.26-0.84-1.93-1.18c-0.48-0.26-0.88-0.46-1.21-0.6s-0.57-0.26-0.76-0.36
				c-0.14-0.05-0.26-0.14-0.36-0.25c-0.06-0.11-0.06-0.24,0-0.35c0.14-0.32,0.2-0.66,0.2-1c-0.11-1.25-0.69-1.89-1.73-1.92
				c-1.24,0-2,0.71-2.3,2.19l-0.06,0.39c0,0.13,0,0.25,0,0.36c0,0.35,0.08,0.69,0.24,1c0.13,0.22,0.23,0.45,0.29,0.7
				c0,0.03,0,0.07,0,0.1c-0.03,0.07-0.05,0.14-0.06,0.21c-0.52,1.78-1.21,3.52-2.06,5.17c-0.55,1.19-1.22,2.32-2,3.37
				c-0.55,0.64-1.15,1.23-1.81,1.76c-0.63,0.42-1.34,0.72-2.08,0.88c-0.72,0.02-1.42-0.19-2-0.61c-0.2-0.21-0.3-0.49-0.28-0.78
				c0.02-0.47,0.11-0.93,0.28-1.37c0.19-0.55,0.42-1.19,0.71-1.94s0.63-1.6,1.06-2.56c1.13-2.45,1.89-4.07,2.26-4.86
				c0.23-0.43,0.12-0.97-0.27-1.27c-0.43-0.24-0.92-0.39-1.41-0.43c-0.5-0.15-1.02-0.19-1.53-0.12c-0.24,0.1-0.47,0.24-0.65,0.43
				c-0.18,0.19-0.34,0.41-0.48,0.63c-0.16,0.29-0.46,0.31-0.88,0.08c-0.93-0.47-1.96-0.7-3-0.67c-1.54,0.05-3.05,0.46-4.39,1.21
				c-1.93,1.06-3.5,2.67-4.5,4.63c-0.99,1.68-1.54,3.57-1.61,5.52c-0.05,1.16,0.35,2.3,1.13,3.17c0.77,0.88,1.9,1.36,3.06,1.29
				c1.61-0.13,3.12-0.83,4.26-1.98c0.87-0.71,1.61-1.57,2.18-2.54c0.05-0.11,0.12-0.21,0.22-0.28c0.09-0.08,0.17-0.1,0.22-0.08
				c0.03,0.08,0.03,0.16,0,0.24c-0.16,0.54-0.25,1.1-0.28,1.66c-0.01,0.76,0.36,1.48,1,1.9c1.19,0.59,2.52,0.84,3.85,0.72
				c0.37,0,0.74,0,1.09,0s0.68-0.07,1-0.12c1.51-0.22,2.92-0.92,4-2c0.18-0.25,0.27-0.55,0.28-0.86c0-0.12,0-0.23,0-0.34
				c0.94-1.08,1.75-2.26,2.4-3.54c0,0,0.22-0.49,0.57-1.31c0.35-0.82,0.86-2,1.53-3.66c0.13-0.36,0.31-0.48,0.52-0.35
				c0.64,0.27,1.19,0.7,1.61,1.25c0.19,0.33,0.19,0.73,0,1.06c-0.4,0.73-0.73,1.49-1,2.27c-0.3,0.76-0.55,1.46-0.75,2.11
				S59.09,68.42,59,69c-0.07,0.31-0.11,0.62-0.12,0.94c0.02,1.08,0.72,2.02,1.75,2.35c1.17,0.52,2.97,0.59,5.41,0.2
				c0.98-0.12,1.92-0.46,2.75-1c0.33,0.48,0.81,0.83,1.36,1c0.51,0.16,1.04,0.23,1.57,0.23c2.15,0,4.27-1.46,6.36-4.38
				c0.04-0.09,0.1-0.17,0.16-0.24l0.12-0.11c0.05-0.06,0.08,0,0.08,0c0.01,0.1,0.01,0.21,0,0.31c-0.14,0.59-0.22,1.19-0.24,1.8
				c-0.05,0.69,0.25,1.35,0.8,1.76c1.2,0.63,2.56,0.92,3.91,0.82c0.38,0,0.73,0,1.07,0l1-0.14c1.51-0.22,2.92-0.92,4-2
				c0.18-0.25,0.27-0.55,0.28-0.86c0-0.12,0-0.23,0-0.34c0.94-1.08,1.75-2.27,2.41-3.54l0.56-1.31c0.35-0.82,0.86-2.04,1.53-3.66
				c0.13-0.36,0.31-0.48,0.52-0.35c0.64,0.27,1.19,0.7,1.61,1.25c0.19,0.33,0.19,0.73,0,1.06c-0.39,0.73-0.73,1.49-1,2.27
				c-0.3,0.76-0.55,1.46-0.75,2.11s-0.37,1.28-0.5,1.88c-0.07,0.31-0.11,0.62-0.12,0.94c0.02,1.08,0.72,2.02,1.75,2.35
				c1.17,0.52,2.98,0.59,5.41,0.2c1.22-0.16,2.36-0.66,3.31-1.44l0.11,0.13c0.31,0.29,0.65,0.56,1,0.8
				c1.11,0.53,2.35,0.76,3.58,0.66c0.38,0,0.73,0,1.07,0s0.66-0.07,1-0.12c1.49-0.23,2.87-0.93,3.94-2
				c0.18-0.25,0.28-0.55,0.28-0.86C115.01,69.16,114.91,68.61,114.67,68.12z M45.51,61c-0.99,2.19-2.25,4.25-3.74,6.14l-1.11,1.28
				c-0.28,0.32-0.49,0.55-0.62,0.68c-0.46,0.55-1.11,0.9-1.82,1c-1,0-1.44-0.61-1.44-1.84c0.15-1.7,0.78-3.33,1.81-4.7
				c0.7-1.03,1.6-1.9,2.65-2.56c0.86-0.62,1.88-0.97,2.94-1c0.92,0,1.37,0.26,1.37,0.7C45.57,60.8,45.55,60.91,45.51,61z"/>
			
				<linearGradient id="_Compound_Path_13_1_" gradientUnits="userSpaceOnUse" x1="33.1087" y1="28.3262" x2="38.5903" y2="33.8179" gradientTransform="matrix(1 0 0 -1 0 113.4646)">
				<stop  offset="0" style="stop-color:#DFB98A"/>
				<stop  offset="1" style="stop-color:#CC9963"/>
			</linearGradient>
			<path id="_Compound_Path_13" class="st23" d="M36.57,77.63h-1.86v0.55h0.68l-1.79,6.21h-0.69v0.55h2v-0.55h-0.68l0.46-1.64h2.07
				l0.48,1.64h-0.68v0.55h2.64v-0.55h-0.69L36.57,77.63z M34.86,82.2l0.87-3.12l0.89,3.12H34.86z"/>
			
				<linearGradient id="_Path_12_1_" gradientUnits="userSpaceOnUse" x1="46.695" y1="29.2796" x2="51.815" y2="34.3996" gradientTransform="matrix(1 0 0 -1 0 113.4646)">
				<stop  offset="0" style="stop-color:#DFB98A"/>
				<stop  offset="1" style="stop-color:#CC9963"/>
			</linearGradient>
			<polygon id="_Path_12" class="st24" points="51.06,84.39 49.35,84.39 49.35,78.18 50.38,78.18 50.38,77.63 47.45,77.63 
				47.45,78.18 48.13,78.18 48.13,84.39 47.45,84.39 47.45,84.94 51.74,84.94 51.74,83.57 51.06,83.57 			"/>
			
				<linearGradient id="_Path_13_1_" gradientUnits="userSpaceOnUse" x1="59.2669" y1="29.2764" x2="65.0432" y2="35.0627" gradientTransform="matrix(1 0 0 -1 0 113.4646)">
				<stop  offset="0" style="stop-color:#DFB98A"/>
				<stop  offset="1" style="stop-color:#CC9963"/>
			</linearGradient>
			<polygon id="_Path_13" class="st25" points="63.63,84.39 61.91,84.39 61.91,81.47 63.2,81.47 63.2,82.01 63.88,82.01 
				63.88,80.37 63.2,80.37 63.2,80.91 61.91,80.91 61.91,78.18 63.58,78.18 63.58,79 64.27,79 64.27,77.63 60.02,77.63 60.02,78.18 
				60.7,78.18 60.7,84.39 60.02,84.39 60.02,84.94 64.31,84.94 64.31,83.57 63.63,83.57 			"/>
			
				<linearGradient id="_Path_14_1_" gradientUnits="userSpaceOnUse" x1="72.4487" y1="29.5658" x2="77.6387" y2="34.7558" gradientTransform="matrix(1 0 0 -1 0 113.4646)">
				<stop  offset="0" style="stop-color:#DFB98A"/>
				<stop  offset="1" style="stop-color:#CC9963"/>
			</linearGradient>
			<path id="_Path_14" class="st26" d="M76.47,81.09l-1.55-0.77c-0.48-0.18-0.81-0.63-0.84-1.14c-0.01-0.3,0.1-0.6,0.31-0.82
				c0.2-0.19,0.47-0.29,0.74-0.28c0.45-0.05,0.9,0.12,1.2,0.46V79H77v-0.91c-0.52-0.44-1.2-0.65-1.88-0.56
				c-0.6-0.04-1.19,0.16-1.64,0.56c-0.35,0.4-0.52,0.93-0.48,1.46c-0.04,0.71,0.27,1.39,0.83,1.82c0,0,0.56,0.3,1.52,0.77
				c0.46,0.15,0.79,0.57,0.82,1.06c0.01,0.32-0.11,0.63-0.32,0.86c-0.21,0.22-0.51,0.35-0.82,0.34c-0.49,0-0.96-0.16-1.34-0.46v-0.6
				H73v1.09c0.61,0.42,1.35,0.63,2.09,0.6c0.55,0.02,1.08-0.16,1.51-0.51c0.5-0.45,0.77-1.1,0.72-1.77
				C77.34,82.09,77.02,81.46,76.47,81.09z"/>
			
				<linearGradient id="_Path_15_1_" gradientUnits="userSpaceOnUse" x1="85.0369" y1="29.2764" x2="90.8132" y2="35.0627" gradientTransform="matrix(1 0 0 -1 0 113.4646)">
				<stop  offset="0" style="stop-color:#DFB98A"/>
				<stop  offset="1" style="stop-color:#CC9963"/>
			</linearGradient>
			<polygon id="_Path_15" class="st27" points="89.4,84.39 87.69,84.39 87.69,81.47 88.97,81.47 88.97,82.01 89.65,82.01 
				89.65,80.37 88.97,80.37 88.97,80.91 87.69,80.91 87.69,78.18 89.35,78.18 89.35,79 90.04,79 90.04,77.63 85.79,77.63 
				85.79,78.18 86.47,78.18 86.47,84.39 85.79,84.39 85.79,84.94 90.08,84.94 90.08,83.57 89.4,83.57 			"/>
		</g>
	</g>
</g>
</svg>
