<?xml version="1.0" encoding="utf-8"?>
<!-- Generator: Adobe Illustrator 23.0.3, SVG Export Plug-In . SVG Version: 6.00 Build 0)  -->
<svg version="1.1" id="Layer_1" xmlns="http://www.w3.org/2000/svg" xmlns:xlink="http://www.w3.org/1999/xlink" x="0px" y="0px"
	 viewBox="0 0 245.3 154.1" style="enable-background:new 0 0 245.3 154.1;" xml:space="preserve">
<style type="text/css">
	.st0{fill:#BD9241;}
	.st1{fill:url(#SVGID_1_);}
	.st2{fill:url(#SVGID_2_);}
	.st3{fill:#FFFFFF;}
	.st4{fill:url(#SVGID_3_);}
</style>
<path class="st0" d="M99.8,94.4c-10,0-15.3,7-15.3,13.9c0,11.9,13.5,17.6,27.5,18.1c-0.3-3-0.9-5.8-1.9-8.2
	c-9.3-0.8-17.5-4.1-17.5-9.9c0-2.8,1.9-5.8,7.2-5.8c7.3,0,18.1,8.8,18.1,27.8h8.1C126,107.8,112.7,94.4,99.8,94.4L99.8,94.4z"/>
<linearGradient id="SVGID_1_" gradientUnits="userSpaceOnUse" x1="114.9016" y1="46.4465" x2="122.5716" y2="26.7465" gradientTransform="matrix(1 0 0 -1 0 153.8898)">
	<stop  offset="0" style="stop-color:#BD9241"/>
	<stop  offset="0.77" style="stop-color:#A7772E"/>
	<stop  offset="0.84" style="stop-color:#A5752D"/>
</linearGradient>
<path class="st1" d="M117.4,103.5c-2.3,1.5-4.5,3.1-6.5,5c4,4.5,7,11.8,7,21.9h8.1C126,118.8,122.5,109.6,117.4,103.5L117.4,103.5z"
	/>
<linearGradient id="SVGID_2_" gradientUnits="userSpaceOnUse" x1="117.93" y1="112.7692" x2="188.34" y2="112.7692">
	<stop  offset="0" style="stop-color:#D9B35E"/>
	<stop  offset="1" style="stop-color:#FFFFFF"/>
</linearGradient>
<path class="st2" d="M181.8,111.6c-6.2,6.6-14.6,10.3-23.6,10.6c-2.5,0.1-4.9-0.1-7.3-0.6c5.1-3,8.5-7.4,8.5-13.3
	c0-6.9-5.3-13.9-15.3-13.9c-12.9,0-26.3,13.4-26.3,35.9h8.1c0-18.9,10.8-27.8,18.1-27.8c5.3,0,7.2,3,7.2,5.8c0,4.5-5.1,7.5-11.7,9
	c-1.9,0.4-3.8,0.7-5.9,0.9c-0.6,1.5-1.1,3.2-1.4,5c1.4,1,3,2,4.5,2.8c4.5,2.4,9.4,4,14.4,4.7c2.4,0.3,4.8,0.4,7.2,0.4
	c11.4-0.3,22-5.1,29.8-13.4L181.8,111.6L181.8,111.6z"/>
<g>
	<path class="st3" d="M146.4,86.4c0,2.2,0.2,4.1,0.6,5.8c8,1,12.8,6.1,14.3,12c1.1,0.1,2.2,0.2,3.4,0.2h8.1V91h-5.7
		c-1.7,0-3-0.3-3.7-1c-0.8-0.7-1.1-1.8-1.1-3.3V65.8h10.4V52.6h-10.4V31.8h-15.9v20.8H140v13.2h6.3V86.4L146.4,86.4z"/>
	<path class="st3" d="M112,65.8v29.9c3.4,2.1,6.5,5.1,9.1,8.8h1.9c1.5-2.1,3.1-4,4.9-5.7v-33h8.5V52.5h-8.6v-0.5
		c0-2.7,0.6-4.6,1.9-5.7c1.2-1.1,3.4-1.5,6.4-1.3V31.6c-0.6-0.1-1.4-0.1-2.6-0.1c-7.1,0-12.4,1.7-16.1,5c-3.7,3.3-5.5,8.2-5.5,14.5
		v1.5h0.1L112,65.8L112,65.8L112,65.8z"/>
	<path class="st3" d="M64.9,59.9c-1.5-2.4-3.6-4.4-6.4-5.9s-6-2.2-9.6-2.2c-4.3,0-8.2,1.1-11.6,3.3c-3.5,2.2-6.2,5.3-8.2,9.3
		c-2,4-3,8.7-3,14s1,10,3,14.1s4.8,7.2,8.2,9.4c3.5,2.2,7.3,3.3,11.6,3.3c3.7,0,6.8-0.8,9.6-2.3c2.7-1.5,4.9-3.5,6.4-5.9v7.3
		c0,4.2-1,7.2-2.9,9.1s-4.6,2.8-7.9,2.8c-2.7,0-5-0.6-6.9-1.7s-3-2.7-3.5-4.7H28c0.7,6.2,3.4,11.1,8.2,14.7c4.8,3.6,11,5.4,18.7,5.4
		c5.8,0,10.6-1.1,14.4-3.4c3.9-2.3,6.8-5.4,8.7-9.3s2.8-8.2,2.8-13V52.6H64.9L64.9,59.9L64.9,59.9z M61.6,87.9
		c-2.2,2.3-4.9,3.4-8,3.4s-5.8-1.2-8-3.5c-2.2-2.3-3.3-5.5-3.3-9.4s1.1-7.1,3.3-9.3c2.2-2.3,4.9-3.4,8-3.4s5.8,1.2,8,3.4
		s3.3,5.4,3.3,9.4S63.8,85.6,61.6,87.9L61.6,87.9z"/>
	<path class="st3" d="M99.8,92.1c2.9,0,5.7,0.6,8.4,1.7V52.6H92.3v40.9C94.5,92.6,96.9,92.1,99.8,92.1L99.8,92.1z"/>
	<path class="st3" d="M220.9,80.8c-1.8-2.1-3.9-3.7-6.4-4.7c-2.4-1-5.6-1.9-9.4-2.9c-3.3-0.7-5.8-1.5-7.4-2.2
		c-1.6-0.8-2.4-1.9-2.4-3.3c0-1.2,0.5-2.2,1.5-2.9s2.4-1.1,4.3-1.1c2.2,0,3.9,0.5,5.3,1.6c1.3,1.1,2.1,2.5,2.4,4.3h14.7
		c-0.6-5.3-2.7-9.6-6.5-12.8c-3.8-3.2-8.9-4.8-15.4-4.8c-4.4,0-8.2,0.7-11.4,2.1s-5.6,3.4-7.3,5.8s-2.5,5.2-2.5,8.1
		c0,3.5,0.9,6.3,2.7,8.4c1.8,2.1,3.9,3.6,6.4,4.6c2.5,1,5.6,1.9,9.3,2.7c3.5,0.9,6,1.7,7.5,2.4s2.3,1.8,2.3,3.3c0,1.2-0.5,2.3-1.6,3
		c-1.1,0.8-2.6,1.2-4.6,1.2c-2.2,0-4-0.6-5.5-1.7c-1.5-1.1-2.3-2.6-2.5-4.4h-15.7c0.3,3.3,1.4,6.4,3.4,9.1c2,2.7,4.8,4.8,8.4,6.4
		c3.5,1.6,7.6,2.3,12.1,2.3c4.2,0,7.9-0.7,11.1-2.1c3.2-1.4,5.6-3.2,7.4-5.6c1.7-2.4,2.6-5.1,2.6-8.1
		C223.7,85.8,222.7,82.9,220.9,80.8L220.9,80.8z"/>
</g>
<linearGradient id="SVGID_3_" gradientUnits="userSpaceOnUse" x1="47.5448" y1="13.4837" x2="92.5281" y2="58.467">
	<stop  offset="0" style="stop-color:#FFFFFF"/>
	<stop  offset="1" style="stop-color:#D9B35E"/>
</linearGradient>
<path class="st4" d="M35.5,46.6c-1.5,0-2.8-0.5-3.9-1.5S30,42.8,30,41.2c0-0.3,0-0.6,0.1-0.9c0.2-1.2,1-1.8,2.4-1.8
	c0.3,0,0.7,0.1,1.1,0.2c0.5,0.2,0.7,0.4,0.8,0.7c0,0.7,0,1.1,0.1,1.3c0.1,0.5,0.3,0.8,0.6,1c0.4,0.3,0.8,0.5,1.3,0.5
	c0.6,0,1.1-0.2,1.6-0.6c0.5-0.4,0.8-0.9,0.9-1.5c0.1-0.5,0-1-0.3-1.4c-0.3-0.4-0.6-0.7-1.1-0.7l-1.6-0.2c-0.7-0.1-1.2-0.3-1.6-0.5
	c-0.9-0.4-1.6-1.1-2-2.1c-0.4-0.9-0.7-1.8-0.7-2.9c0-2,0.9-3.8,2.7-5.4c1.5-1.3,3.1-1.9,4.8-1.9c1.5,0,2.8,0.5,3.9,1.5
	c1.1,1,1.6,2.3,1.6,3.8c0,0.3,0,0.6-0.1,0.9c-0.2,1.2-1,1.8-2.4,1.8c-1.1,0-1.7-0.3-1.9-1v-1c0-0.5-0.2-0.9-0.6-1.2
	c-0.4-0.3-0.8-0.5-1.3-0.5c-0.6,0-1.1,0.2-1.6,0.7c-0.5,0.4-0.8,1-0.9,1.5c-0.1,0.5,0,0.9,0.3,1.4c0.3,0.4,0.6,0.7,1.1,0.7l1.8,0.2
	c1.3,0.3,2.3,0.9,3,1.9c0.7,1,1.1,2.2,1.1,3.5c0,1.9-0.8,3.7-2.3,5.1C39.2,45.9,37.4,46.6,35.5,46.6z M65.9,40.9
	c-0.1,0.9-0.6,1.9-1.5,2.9c-0.8,0.9-1.6,1.6-2.5,2c-1.2,0.6-2.4,0.9-3.3,0.9c-1.5,0-2.9-0.6-4-1.7c-1.5,1.1-3,1.7-4.6,1.7
	c-1.8,0-3.2-0.7-4.3-2.1c-0.8-1.1-1.3-2.1-1.3-3.2c0-0.2,0-0.4,0-0.5l2.3-14.4c0.1-0.4,0.4-0.7,1-1c0.5-0.2,0.9-0.4,1.4-0.4
	c0.3,0,0.7,0.1,1.2,0.3c0.6,0.3,0.8,0.6,0.7,1l-2.3,14.2c-0.1,0.4,0.1,0.8,0.5,1.1c0.4,0.4,0.9,0.6,1.4,0.6c0.4,0,0.9-0.2,1.5-0.6
	c0.6-0.4,0.9-0.8,0.9-1.2l2.3-14.2c0.1-0.4,0.4-0.7,1-1c0.5-0.2,1-0.4,1.4-0.4c0.4,0,0.8,0.1,1.2,0.3c0.5,0.3,0.7,0.6,0.7,1
	l-2.3,14.2c-0.1,0.4,0.1,0.8,0.5,1.1c0.4,0.4,0.9,0.6,1.4,0.6c0.4,0,1-0.2,1.5-0.6s0.9-0.8,1-1.2l2.2-14.2c0.1-0.4,0.4-0.7,1-1
	c0.5-0.2,1-0.4,1.4-0.4c0.4,0,0.8,0.1,1.2,0.3c0.5,0.3,0.7,0.6,0.7,1L65.9,40.9z M77.8,44.9c-1.5,1.1-3,1.7-4.6,1.7
	c-1.8,0-3.2-0.7-4.3-2.1c-0.8-1.1-1.3-2.1-1.3-3.2c0-0.2,0-0.4,0-0.5l1.6-9.9c0.1-0.9,0.6-1.9,1.5-2.9c0.8-0.9,1.6-1.5,2.5-2
	c1.2-0.6,2.3-0.9,3.3-0.9c1.6,0,2.9,0.5,4,1.5c1,1,1.5,2.3,1.5,3.9c0,2.2-0.9,4.1-2.6,5.5c-1.6,1.3-3.6,2-5.9,2c-0.4,0-0.8,0-1.1,0
	c-0.2,0.8-0.3,1.6-0.3,2.2c0,1.4,0.6,2.1,1.8,2.1c1.1,0,1.9-0.6,2.4-1.7c0-0.2,0.1-0.6,0.3-1c0.4-0.6,1.1-1,2.2-1
	c1.2,0,1.9,0.5,1.9,1.4c0,0.9-0.3,1.8-0.9,2.8C79.2,43.6,78.6,44.3,77.8,44.9z M77.8,31.6c0.1-0.6,0-1.1-0.4-1.5
	c-0.4-0.4-0.8-0.7-1.4-0.7c-0.5,0-1,0.2-1.5,0.6c-0.6,0.4-0.9,0.8-0.9,1.2l-0.4,2.6h2.6c0.4,0,0.8-0.3,1.3-0.8S77.7,32,77.8,31.6z
	 M92.2,44.9c-1.5,1.1-3,1.7-4.6,1.7c-1.8,0-3.2-0.7-4.3-2.1c-0.8-1.1-1.3-2.1-1.3-3.2c0-0.2,0-0.4,0-0.5l1.6-9.9
	c0.1-0.9,0.6-1.9,1.5-2.9c0.8-0.9,1.6-1.5,2.5-2c1.2-0.6,2.3-0.9,3.3-0.9c1.6,0,2.9,0.5,4,1.5c1,1,1.5,2.3,1.5,3.9
	c0,2.2-0.9,4.1-2.6,5.5c-1.6,1.3-3.6,2-5.9,2c-0.4,0-0.8,0-1.1,0c-0.2,0.8-0.3,1.6-0.3,2.2c0,1.4,0.6,2.1,1.8,2.1
	c1.1,0,1.9-0.6,2.4-1.7c0-0.2,0.1-0.6,0.3-1c0.4-0.6,1.1-1,2.2-1c1.2,0,1.9,0.5,1.9,1.4c0,0.9-0.3,1.8-0.9,2.8
	C93.6,43.6,93,44.3,92.2,44.9z M92.2,31.6c0.1-0.6,0-1.1-0.4-1.5c-0.4-0.4-0.8-0.7-1.4-0.7c-0.5,0-1,0.2-1.5,0.6
	c-0.6,0.4-0.9,0.8-0.9,1.2l-0.4,2.6h2.6c0.4,0,0.8-0.3,1.3-0.8S92.1,32,92.2,31.6z M105.6,44.5c-0.2,1-0.6,1.6-1.2,1.9
	c-0.3,0.2-1,0.2-2,0.2c-1,0-1.8-0.1-2.2-0.1c-1.1-0.2-2.1-0.9-2.9-1.9c-0.8-1-1.3-2.1-1.3-3.2c0-0.2,0-0.3,0.1-0.5l2.9-18.7
	c0.1-0.4,0.4-0.7,1.1-1c0.5-0.2,0.9-0.3,1.3-0.3c1.2,0,1.8,0.5,1.8,1.4l-0.4,2.7c0.3,0.1,0.7,0.1,1.3,0.1c0.1,0,0.2,0,0.4,0h0.4
	c0.7,0,1.1,0.1,1.4,0.2c0.4,0.2,0.6,0.6,0.6,1.3c0,0.1,0,0.3-0.1,0.6c-0.2,1.2-0.7,1.9-1.6,2c-1,0-2,0.1-3,0.1l-1.8,11.1
	c0.1,0.7,0.3,1.2,0.6,1.5s1,0.4,1.8,0.4h0.8c1.4,0,2,0.5,2,1.5C105.7,44,105.7,44.2,105.6,44.5z"/>
</svg>
